<svg width="36" height="36" viewBox="0 0 36 36" fill="none" xmlns="http://www.w3.org/2000/svg">
<g clip-path="url(#clip0_111:103)">
<path d="M25.1298 11.5648C23.8184 10.9734 22.4127 10.5363 20.9427 10.2877C20.9296 10.2852 20.916 10.2868 20.9039 10.2923C20.8918 10.2978 20.8817 10.307 20.875 10.3185C20.695 10.6348 20.4944 11.0471 20.3538 11.3728C18.7948 11.1399 17.2097 11.1399 15.6507 11.3728C15.4941 11.0119 15.3176 10.6599 15.1218 10.3185C15.1152 10.3069 15.1052 10.2975 15.0931 10.2917C15.081 10.2859 15.0674 10.2839 15.0541 10.286C13.585 10.5345 12.1793 10.9717 10.867 11.564C10.8557 11.5687 10.8461 11.5768 10.8395 11.5871C8.17211 15.5085 7.44097 19.3331 7.80011 23.1097C7.80111 23.1189 7.80398 23.1279 7.80855 23.136C7.81312 23.1441 7.81929 23.1512 7.82668 23.1568C9.38359 24.2903 11.1201 25.1538 12.9635 25.7111C12.9764 25.7151 12.9901 25.7151 13.003 25.7111C13.0158 25.7071 13.0272 25.6994 13.0355 25.6888C13.4315 25.1574 13.7847 24.596 14.0864 24.0063C14.1044 23.972 14.0873 23.9308 14.0513 23.9171C13.4975 23.7086 12.961 23.457 12.4467 23.1645C12.4374 23.1593 12.4297 23.1518 12.424 23.1427C12.4184 23.1337 12.4151 23.1234 12.4144 23.1128C12.4137 23.1022 12.4157 23.0916 12.4201 23.0819C12.4246 23.0722 12.4313 23.0638 12.4398 23.0574C12.5478 22.9777 12.6558 22.8945 12.7587 22.8114C12.7679 22.8039 12.7791 22.7992 12.7909 22.7976C12.8027 22.7961 12.8147 22.7979 12.8255 22.8028C16.1915 24.3148 19.837 24.3148 23.1635 22.8028C23.1744 22.7976 23.1865 22.7956 23.1985 22.797C23.2105 22.7983 23.2218 22.803 23.2313 22.8105C23.3341 22.8945 23.4413 22.9777 23.5501 23.0574C23.5587 23.0637 23.5656 23.072 23.5702 23.0816C23.5747 23.0912 23.5769 23.1017 23.5763 23.1124C23.5758 23.123 23.5727 23.1333 23.5672 23.1424C23.5618 23.1515 23.5541 23.1591 23.545 23.1645C23.0324 23.4594 22.4993 23.7088 21.9395 23.9163C21.9309 23.9194 21.9231 23.9243 21.9166 23.9307C21.91 23.9371 21.9049 23.9448 21.9016 23.9533C21.8983 23.9618 21.8968 23.9709 21.8973 23.9801C21.8978 23.9892 21.9002 23.9981 21.9044 24.0063C22.213 24.5951 22.5661 25.1557 22.9544 25.688C22.9625 25.6989 22.9737 25.7071 22.9866 25.7114C22.9995 25.7156 23.0134 25.7159 23.0264 25.712C24.873 25.1562 26.6123 24.2923 28.171 23.1568C28.1786 23.1515 28.185 23.1446 28.1897 23.1366C28.1944 23.1287 28.1974 23.1198 28.1984 23.1105C28.627 18.7443 27.4801 14.9505 25.1564 11.5888C25.1507 11.5779 25.1413 11.5694 25.1298 11.5648ZM14.5895 20.81C13.5764 20.81 12.7407 19.8937 12.7407 18.77C12.7407 17.6454 13.5601 16.73 14.5895 16.73C15.6267 16.73 16.4547 17.6531 16.4384 18.77C16.4384 19.8945 15.619 20.81 14.5895 20.81ZM21.4253 20.81C20.4113 20.81 19.5764 19.8937 19.5764 18.77C19.5764 17.6454 20.395 16.73 21.4253 16.73C22.4624 16.73 23.2904 17.6531 23.2741 18.77C23.2741 19.8945 22.4633 20.81 21.4253 20.81Z" fill="white"/>
</g>
<defs>
<clipPath id="clip0_111:103">
<rect width="20.5714" height="20.5714" fill="white" transform="translate(7.71484 7.71484)"/>
</clipPath>
</defs>
</svg>
