<svg xmlns="http://www.w3.org/2000/svg" xmlns:xlink="http://www.w3.org/1999/xlink" width="500" zoomAndPan="magnify" viewBox="0 0 375 374.999991" height="500" preserveAspectRatio="xMidYMid meet" version="1.0"><path fill="#000000" d="M 1.566406 207.179688 C 8.082031 222.640625 18.9375 234.71875 31.238281 246.074219 C 43.542969 257.425781 57.171875 267.332031 71.648438 275.667969 C 100.234375 292.09375 133.042969 302.121094 165.847656 304.65625 C 230.5 309.488281 292.980469 281.828125 334.230469 231.941406 C 355.460938 206.332031 375 170.09375 372.105469 135.789062 C 371.503906 128.300781 359.921875 128.058594 357.871094 134.703125 C 353.53125 148.230469 350.636719 161.882812 345.328125 175.046875 C 340.019531 188.457031 332.90625 200.777344 324.460938 212.128906 C 307.816406 234.597656 285.742188 253.078125 260.894531 265.761719 C 207.222656 293.304688 143.65625 289.316406 90.34375 262.621094 C 74.902344 254.890625 60.550781 245.46875 46.800781 234.960938 C 33.167969 224.574219 21.230469 212.128906 7.71875 201.5 C 4.222656 198.722656 0 203.433594 1.566406 207.179688 Z M 1.566406 207.179688 " fill-opacity="1" fill-rule="nonzero"/><path fill="#000000" d="M 59.945312 96.171875 C 58.980469 114.894531 79.726562 128.664062 96.976562 127.335938 C 114.828125 125.886719 132.195312 108.128906 129.785156 89.527344 C 128.699219 81.191406 117.480469 83.246094 116.15625 90.371094 C 115.070312 96.414062 113.984375 101.484375 109.640625 106.316406 C 105.902344 110.542969 100.835938 113.683594 95.289062 114.53125 C 81.539062 116.585938 72.007812 106.074219 66.21875 95.082031 C 64.773438 92.183594 60.1875 92.789062 59.945312 96.171875 Z M 59.945312 96.171875 " fill-opacity="1" fill-rule="nonzero"/><path fill="#000000" d="M 216.148438 85.78125 C 213.132812 93.996094 218.921875 103.175781 224.832031 108.492188 C 231.707031 114.773438 240.511719 117.914062 249.800781 116.945312 C 270.425781 115.015625 284.777344 93.511719 278.867188 73.703125 C 276.574219 65.851562 264.996094 67.785156 266.203125 76.121094 C 268.253906 89.890625 262.464844 103.054688 247.386719 104.988281 C 241.476562 105.714844 235.445312 103.660156 230.984375 99.554688 C 226.398438 95.445312 224.589844 89.527344 221.09375 84.695312 C 219.886719 83.003906 216.871094 83.851562 216.148438 85.78125 Z M 216.148438 85.78125 " fill-opacity="1" fill-rule="nonzero"/></svg>