<svg xmlns="http://www.w3.org/2000/svg" xmlns:xlink="http://www.w3.org/1999/xlink" width="40" zoomAndPan="magnify" viewBox="0 0 30 30.000001" height="40" preserveAspectRatio="xMidYMid meet" version="1.0">
<defs><clipPath id="id1">
<path d="M 0.484375 0 L 29.515625 0 L 29.515625 29.03125 L 0.484375 29.03125 Z M 0.484375 0 " clip-rule="nonzero"/>
</clipPath>
<clipPath id="id2">
<path d="M 0.484375 0 L 28.789062 0 L 28.789062 28.304688 L 0.484375 28.304688 Z M 0.484375 0 " clip-rule="nonzero"/>
</clipPath>
</defs><g clip-path="url(#id1)">
<path fill="#white" d="M 0.484375 0 L 29.515625 0 L 29.515625 36.289062 L 0.484375 36.289062 Z M 0.484375 0 " fill-opacity="white" fill-rule="none"/>
<path fill="#ffffff" d="M 0.484375 0 L 29.515625 0 L 29.515625 29.03125 L 0.484375 29.03125 Z M 0.484375 0 " fill-opacity="white" fill-rule="none"/>
<path fill="#ffffff" d="M 0.484375 0 L 29.515625 0 L 29.515625 29.03125 L 0.484375 29.03125 Z M 0.484375 0 " fill-opacity="white" fill-rule="none"/>
<path fill="#ffffff" d="M 0.484375 0 L 29.515625 0 L 29.515625 29.03125 L 0.484375 29.03125 Z M 0.484375 0 " fill-opacity="white" fill-rule="none"/>
</g>
<g clip-path="url(#id2)">


<svg width="36" height="36" viewBox="0 0 36 36" fill="none" xmlns="http://www.w3.org/2000/svg">
<g clip-path="url(#clip0_111:103)">
<path fill="#7ddcfa" d="M 14.632812 2.550781 C 18.40625 2.550781 18.855469 2.566406 20.347656 2.632812 C 21.726562 2.695312 22.476562 2.925781 22.980469 3.121094 C 23.636719 3.378906 24.109375 3.6875 24.605469 4.183594 C 25.101562 4.679688 25.402344 5.152344 25.664062 5.808594 C 25.855469 6.304688 26.085938 7.054688 26.15625 8.4375 C 26.222656 9.933594 26.234375 10.378906 26.234375 14.15625 C 26.234375 17.933594 26.222656 18.378906 26.15625 19.875 C 26.09375 21.25 25.863281 22.003906 25.664062 22.503906 C 25.410156 23.160156 25.101562 23.632812 24.605469 24.128906 C 24.109375 24.625 23.636719 24.929688 22.980469 25.191406 C 22.484375 25.382812 21.730469 25.613281 20.347656 25.679688 C 18.855469 25.75 18.40625 25.761719 14.632812 25.761719 C 10.855469 25.761719 10.40625 25.75 8.914062 25.679688 C 7.535156 25.617188 6.785156 25.386719 6.28125 25.191406 C 5.625 24.9375 5.152344 24.625 4.65625 24.128906 C 4.160156 23.632812 3.859375 23.160156 3.597656 22.503906 C 3.40625 22.007812 3.175781 21.257812 3.105469 19.875 C 3.039062 18.378906 3.027344 17.933594 3.027344 14.15625 C 3.027344 10.378906 3.039062 9.933594 3.105469 8.4375 C 3.167969 7.0625 3.398438 6.3125 3.597656 5.808594 C 3.851562 5.152344 4.160156 4.679688 4.65625 4.183594 C 5.152344 3.6875 5.625 3.382812 6.28125 3.121094 C 6.777344 2.929688 7.53125 2.699219 8.914062 2.632812 C 10.40625 2.566406 10.855469 2.550781 14.632812 2.550781 M 14.632812 0.00390625 C 10.785156 0.00390625 10.308594 0.0234375 8.792969 0.0898438 C 7.289062 0.15625 6.257812 0.398438 5.359375 0.746094 C 4.429688 1.105469 3.640625 1.589844 2.851562 2.378906 C 2.070312 3.167969 1.585938 3.953125 1.226562 4.882812 C 0.878906 5.785156 0.640625 6.8125 0.570312 8.320312 C 0.503906 9.828125 0.484375 10.3125 0.484375 14.148438 C 0.484375 17.996094 0.503906 18.472656 0.570312 19.984375 C 0.640625 21.492188 0.878906 22.523438 1.226562 23.421875 C 1.585938 24.351562 2.070312 25.140625 2.859375 25.929688 C 3.648438 26.714844 4.433594 27.199219 5.363281 27.558594 C 6.265625 27.90625 7.292969 28.148438 8.800781 28.214844 C 10.308594 28.285156 10.792969 28.304688 14.636719 28.304688 C 18.480469 28.304688 18.960938 28.285156 20.472656 28.214844 C 21.980469 28.148438 23.011719 27.90625 23.910156 27.558594 C 24.839844 27.199219 25.628906 26.714844 26.414062 25.929688 C 27.203125 25.140625 27.6875 24.351562 28.046875 23.421875 C 28.394531 22.523438 28.636719 21.492188 28.703125 19.984375 C 28.773438 18.480469 28.789062 17.996094 28.789062 14.148438 C 28.789062 10.304688 28.773438 9.828125 28.703125 8.3125 C 28.636719 6.808594 28.394531 5.777344 28.046875 4.878906 C 27.6875 3.949219 27.203125 3.160156 26.414062 2.371094 C 25.628906 1.585938 24.839844 1.101562 23.910156 0.742188 C 23.011719 0.394531 21.980469 0.152344 20.472656 0.0820312 C 18.960938 0.0234375 18.476562 0.00390625 14.632812 0.00390625 " fill-opacity="1" fill-rule="nonzero"/></g><path fill="#7ddcfa" d="M 14.632812 6.886719 C 10.617188 6.886719 7.367188 10.136719 7.367188 14.148438 C 7.367188 18.164062 10.625 21.417969 14.636719 21.417969 C 18.648438 21.417969 21.90625 18.167969 21.90625 14.148438 C 21.898438 10.136719 18.644531 6.886719 14.632812 6.886719 M 14.632812 18.871094 C 12.027344 18.871094 9.917969 16.761719 9.917969 14.15625 C 9.917969 11.550781 12.027344 9.441406 14.632812 9.441406 C 17.234375 9.441406 19.34375 11.550781 19.34375 14.15625 C 19.351562 16.753906 17.234375 18.871094 14.632812 18.871094 " fill-opacity="1" fill-rule="nonzero"/><path fill="#7ddcfa" d="M 23.882812 6.601562 C 23.882812 7.539062 23.121094 8.300781 22.183594 8.300781 C 21.25 8.300781 20.484375 7.539062 20.484375 6.601562 C 20.484375 5.664062 21.25 4.902344 22.183594 4.902344 C 23.121094 4.902344 23.882812 5.660156 23.882812 6.601562 " fill="white"/>
</g>
<defs>
<clipPath id="clip0_111:103">
<rect width="20.5714" height="20.5714" fill="white" transform="translate(7.71484 7.71484)"/>
</clipPath>
</defs>
</svg>
