<svg width="36" height="36" viewBox="0 0 36 36" fill="none" xmlns="http://www.w3.org/2000/svg">
<path d="M27.9799 11.947C27.2641 12.2642 26.4953 12.4785 25.687 12.5753C26.521 12.0763 27.145 11.2909 27.4424 10.3656C26.6589 10.831 25.8013 11.1586 24.907 11.3342C24.3056 10.6921 23.5091 10.2665 22.641 10.1234C21.7729 9.98043 20.8819 10.128 20.1064 10.5433C19.3308 10.9585 18.714 11.6182 18.3517 12.4199C17.9895 13.2217 17.902 14.1205 18.103 14.977C16.5153 14.8973 14.9621 14.4847 13.5442 13.7658C12.1263 13.047 10.8754 12.038 9.87272 10.8045C9.52986 11.3959 9.33272 12.0816 9.33272 12.8119C9.33234 13.4693 9.49423 14.1167 9.80405 14.6965C10.1139 15.2764 10.562 15.7708 11.1087 16.1359C10.4747 16.1157 9.85461 15.9444 9.30015 15.6362V15.6876C9.30009 16.6097 9.61903 17.5034 10.2029 18.217C10.7867 18.9307 11.5995 19.4204 12.5033 19.603C11.9151 19.7622 11.2984 19.7857 10.6999 19.6716C10.9549 20.465 11.4516 21.1588 12.1205 21.6558C12.7894 22.1529 13.5969 22.4283 14.4301 22.4436C13.0157 23.554 11.2689 24.1563 9.47072 24.1536C9.15219 24.1537 8.83393 24.1351 8.51758 24.0979C10.3428 25.2715 12.4676 25.8943 14.6376 25.8919C21.9833 25.8919 25.999 19.8079 25.999 14.5313C25.999 14.3599 25.9947 14.1868 25.987 14.0153C26.7681 13.4504 27.4424 12.751 27.9781 11.9496L27.9799 11.947Z" fill="white"/>
</svg>
